<?xml version="1.0" encoding="iso-8859-1"?>
<!-- Generator: Adobe Illustrator 19.0.0, SVG Export Plug-In . SVG Version: 6.00 Build 0)  -->
<svg version="1.1" id="Layer_1" xmlns="http://www.w3.org/2000/svg" xmlns:xlink="http://www.w3.org/1999/xlink" x="0px" y="0px" 
	 viewBox="0 0 512 512" style="enable-background:new 0 0 512 512;" xml:space="preserve">
<g>
	<g>
		<g>
			<path d="M12.8,179.2H64v106.539L21.871,398.071c-0.981,2.62-0.614,5.555,0.981,7.859c1.596,2.295,4.215,3.669,7.014,3.669H192
				h119.467c2.884,0,5.564-1.451,7.142-3.866c1.57-2.406,1.835-5.453,0.674-8.09l-59.682-136.422l-0.017-0.026l-0.034-0.085
				c-0.077-0.171-0.205-0.307-0.299-0.469c-0.128-0.256-0.213-0.538-0.375-0.777c-0.119-0.179-0.273-0.307-0.401-0.478
				c-0.179-0.23-0.35-0.444-0.546-0.657c-0.102-0.102-0.179-0.213-0.282-0.307c-0.256-0.256-0.546-0.452-0.828-0.666
				c-0.23-0.171-0.452-0.35-0.7-0.495c-0.265-0.162-0.538-0.299-0.819-0.427c-0.196-0.094-0.393-0.162-0.597-0.239
				c-0.222-0.085-0.435-0.196-0.666-0.256c-0.742-0.213-1.51-0.341-2.304-0.341H81.067v-76.8h51.2c2.918,0,5.632-1.485,7.202-3.951
				c1.562-2.458,1.766-5.547,0.529-8.192l-59.733-128c-1.399-3.004-4.412-4.924-7.731-4.924s-6.332,1.92-7.731,4.924l-59.733,128
				c-1.237,2.645-1.033,5.734,0.529,8.192C7.168,177.715,9.882,179.2,12.8,179.2z M260.267,305.331l38.153,87.202h-38.153V305.331z
				 M243.201,305.331v87.202h-38.153L243.201,305.331z"/>
			<path d="M473.6,327.987c0-24.482-7.236-35.61-8.055-36.796c-2.116-3.072-5.999-4.403-9.557-3.285
				c-3.558,1.118-5.99,4.412-5.99,8.141c0,5.683-2.927,11.716-6.511,16.913c-2.33-7.859-5.197-13.397-5.393-13.781
				c-1.818-3.473-5.769-5.077-9.617-4.147c-3.806,0.939-6.511,4.54-6.511,8.474c-0.316,0.546-1.707,1.186-3.507,1.647
				c-0.452-4.565,0.64-12.467,2.901-19.243c0.913-2.748,0.375-5.777-1.434-8.038c-1.818-2.27-4.685-3.456-7.543-3.157
				c-23.475,2.449-41.182,20.079-41.182,41.02v4.275c0,10.402,2.842,20.19,7.706,28.621l-17.271,17.263
				c-4.838,4.838-7.501,11.273-7.501,18.108c0,6.835,2.662,13.269,7.501,18.099c4.992,4.992,11.537,7.492,18.099,7.492
				s13.107-2.5,18.099-7.492l26.641-26.641c1.417,0,2.807-0.085,4.19-0.196l26.837,26.837c4.992,4.992,11.537,7.492,18.099,7.492
				c6.562,0,13.107-2.5,18.099-7.484c4.83-4.838,7.501-11.273,7.501-18.108c0-6.835-2.671-13.269-7.501-18.099l-21.188-21.188
				C472.474,339.524,473.6,333.909,473.6,327.987z M385.767,390.033c-3.337,3.328-8.73,3.328-12.066,0
				c-1.621-1.613-2.5-3.755-2.5-6.033s0.879-4.42,2.5-6.033l15.915-15.923c3.277,2.961,7.006,5.333,10.931,7.39
				c1.271,0.666,2.492,1.451,3.814,2.005L385.767,390.033z M479.634,377.967c1.613,1.613,2.5,3.755,2.5,6.033s-0.888,4.42-2.5,6.033
				c-3.336,3.328-8.73,3.328-12.066,0l-20.011-20.002c5.239-2.645,9.865-6.187,13.739-10.402L479.634,377.967z"/>
			<path d="M379.734,179.2c37.641,0,68.267-30.626,68.267-68.267c0-37.641-30.626-68.267-68.267-68.267
				s-68.267,30.626-68.267,68.267C311.467,148.574,342.093,179.2,379.734,179.2z"/>
			<path d="M379.734,34.133c4.719,0,8.533-3.823,8.533-8.533V8.533c0-4.71-3.814-8.533-8.533-8.533s-8.533,3.823-8.533,8.533V25.6
				C371.201,30.31,375.015,34.133,379.734,34.133z"/>
			<path d="M388.267,213.333v-17.067c0-4.71-3.814-8.533-8.533-8.533s-8.533,3.823-8.533,8.533v17.067
				c0,4.71,3.814,8.533,8.533,8.533S388.267,218.044,388.267,213.333z"/>
			<path d="M456.534,110.933c0,4.71,3.814,8.533,8.533,8.533h17.067c4.719,0,8.533-3.823,8.533-8.533s-3.814-8.533-8.533-8.533
				h-17.067C460.348,102.4,456.534,106.223,456.534,110.933z"/>
			<path d="M277.334,119.467h17.067c4.719,0,8.533-3.823,8.533-8.533s-3.814-8.533-8.533-8.533h-17.067
				c-4.719,0-8.533,3.823-8.533,8.533S272.615,119.467,277.334,119.467z"/>
			<path d="M313.359,56.625c1.664,1.664,3.849,2.5,6.033,2.5c2.185,0,4.369-0.836,6.033-2.5c3.337-3.337,3.337-8.73,0-12.066
				l-12.066-12.066c-3.337-3.337-8.73-3.337-12.066,0c-3.337,3.328-3.337,8.73,0,12.066L313.359,56.625z"/>
			<path d="M452.143,191.875c2.185,0,4.369-0.836,6.033-2.5c3.337-3.337,3.337-8.73,0-12.066l-12.066-12.066
				c-3.336-3.337-8.73-3.337-12.066,0c-3.336,3.336-3.336,8.73,0,12.066l12.066,12.066
				C447.773,191.039,449.958,191.875,452.143,191.875z"/>
			<path d="M440.076,59.125c2.185,0,4.369-0.836,6.033-2.5l12.066-12.066c3.337-3.337,3.337-8.73,0-12.066s-8.73-3.337-12.066,0
				l-12.066,12.066c-3.337,3.336-3.337,8.73,0,12.066C435.707,58.289,437.891,59.125,440.076,59.125z"/>
			<path d="M313.359,165.242l-12.066,12.066c-3.337,3.337-3.337,8.738,0,12.066c1.664,1.664,3.849,2.5,6.033,2.5
				s4.369-0.836,6.033-2.5l12.066-12.066c3.337-3.337,3.337-8.73,0-12.066C322.089,161.906,316.696,161.906,313.359,165.242z"/>
			<path d="M46.934,494.933H12.8c-4.719,0-8.533,3.823-8.533,8.533S8.082,512,12.8,512h34.133c4.719,0,8.533-3.823,8.533-8.533
				S51.653,494.933,46.934,494.933z"/>
			<path d="M89.6,460.8H55.467c-4.719,0-8.533,3.823-8.533,8.533s3.814,8.533,8.533,8.533H89.6c4.719,0,8.533-3.823,8.533-8.533
				S94.319,460.8,89.6,460.8z"/>
			<path d="M140.8,494.933h-34.133c-4.719,0-8.533,3.823-8.533,8.533s3.814,8.533,8.533,8.533H140.8
				c4.719,0,8.533-3.823,8.533-8.533S145.519,494.933,140.8,494.933z"/>
			<path d="M192,460.8h-34.133c-4.719,0-8.533,3.823-8.533,8.533s3.814,8.533,8.533,8.533H192c4.719,0,8.533-3.823,8.533-8.533
				S196.719,460.8,192,460.8z"/>
			<path d="M243.201,494.933h-34.133c-4.719,0-8.533,3.823-8.533,8.533s3.814,8.533,8.533,8.533h34.133
				c4.719,0,8.533-3.823,8.533-8.533S247.919,494.933,243.201,494.933z"/>
			<path d="M294.401,460.8h-34.133c-4.719,0-8.533,3.823-8.533,8.533s3.814,8.533,8.533,8.533h34.133
				c4.719,0,8.533-3.823,8.533-8.533S299.119,460.8,294.401,460.8z"/>
			<path d="M209.067,426.667c-4.719,0-8.533,3.823-8.533,8.533s3.814,8.533,8.533,8.533h34.133c4.719,0,8.533-3.823,8.533-8.533
				s-3.814-8.533-8.533-8.533H209.067z"/>
			<path d="M106.667,426.667c-4.719,0-8.533,3.823-8.533,8.533s3.814,8.533,8.533,8.533H140.8c4.719,0,8.533-3.823,8.533-8.533
				s-3.814-8.533-8.533-8.533H106.667z"/>
			<path d="M12.8,443.733h34.133c4.719,0,8.533-3.823,8.533-8.533s-3.814-8.533-8.533-8.533H12.8c-4.719,0-8.533,3.823-8.533,8.533
				S8.082,443.733,12.8,443.733z"/>
			<path d="M302.934,435.2c0,4.71,3.814,8.533,8.533,8.533H345.6c4.719,0,8.533-3.823,8.533-8.533s-3.814-8.533-8.533-8.533h-34.133
				C306.748,426.667,302.934,430.49,302.934,435.2z"/>
			<path d="M345.6,494.933h-34.133c-4.719,0-8.533,3.823-8.533,8.533s3.814,8.533,8.533,8.533H345.6
				c4.719,0,8.533-3.823,8.533-8.533S350.319,494.933,345.6,494.933z"/>
			<path d="M396.8,460.8h-34.133c-4.719,0-8.533,3.823-8.533,8.533s3.814,8.533,8.533,8.533H396.8c4.719,0,8.533-3.823,8.533-8.533
				S401.519,460.8,396.8,460.8z"/>
			<path d="M448,426.667h-34.133c-4.719,0-8.533,3.823-8.533,8.533s3.814,8.533,8.533,8.533H448c4.719,0,8.533-3.823,8.533-8.533
				S452.719,426.667,448,426.667z"/>
			<path d="M448,494.933h-34.133c-4.719,0-8.533,3.823-8.533,8.533s3.814,8.533,8.533,8.533H448c4.719,0,8.533-3.823,8.533-8.533
				S452.719,494.933,448,494.933z"/>
			<path d="M499.201,460.8h-34.133c-4.719,0-8.533,3.823-8.533,8.533s3.814,8.533,8.533,8.533h34.133
				c4.719,0,8.533-3.823,8.533-8.533S503.919,460.8,499.201,460.8z"/>
		</g>
	</g>
</g>
<g>
</g>
<g>
</g>
<g>
</g>
<g>
</g>
<g>
</g>
<g>
</g>
<g>
</g>
<g>
</g>
<g>
</g>
<g>
</g>
<g>
</g>
<g>
</g>
<g>
</g>
<g>
</g>
<g>
</g>
</svg>
