<?xml version="1.0" encoding="iso-8859-1"?>
<!-- Generator: Adobe Illustrator 18.0.0, SVG Export Plug-In . SVG Version: 6.00 Build 0)  -->
<!DOCTYPE svg PUBLIC "-//W3C//DTD SVG 1.1//EN" "http://www.w3.org/Graphics/SVG/1.1/DTD/svg11.dtd">
<svg version="1.1" id="Capa_1" xmlns="http://www.w3.org/2000/svg" xmlns:xlink="http://www.w3.org/1999/xlink" x="0px" y="0px"
	 viewBox="0 0 392.051 392.051" style="enable-background:new 0 0 392.051 392.051;" xml:space="preserve">
<g>
	<path d="M391.401,375.259l-12.811-39.416c-1.002-3.082-3.582-5.387-6.757-6.036l-120.295-24.586l11.537-72.427
		c0.237-1.487,0.097-3.01-0.407-4.429l-36.475-102.668c-1.275-3.589-4.671-5.987-8.48-5.987h-32.286
		c4.076-3.466,7.138-8.114,8.636-13.461l63.325,7.587c0.461,13.254,10.543,24.597,24.112,26.222c1.087,0.13,2.191,0.196,3.281,0.196
		c12.409,0,23.077-8.342,26.339-19.981l18.871,2.261c0.355,0.043,0.708,0.063,1.057,0.063h0.001c4.478,0,8.257-3.355,8.79-7.805
		l0.769-6.413c0.282-2.349-0.369-4.668-1.831-6.528c-1.462-1.86-3.561-3.04-5.911-3.322l-0.109-0.013l0.561-4.681
		c0.499-4.167-2.344-7.229-5.852-8.79l-3.169-8.184c-0.47-1.213-1.499-2.122-2.761-2.437l-31.147-7.78l-23.797-50.06
		c-0.59-1.24-1.774-2.091-3.137-2.254l-82.438-9.876c-1.63-0.192-3.211,0.624-3.993,2.067l-22.222,41.031l-15.909-1.906
		c-8.428-1.009-13.905,3.378-14.903,11.714l-1.942,16.209c-3.92,0.551-7.071,3.686-7.554,7.72l-0.768,6.413
		c-0.282,2.35,0.369,4.668,1.831,6.528c1.462,1.86,3.562,3.039,5.912,3.321l18.863,2.26c0.273,7.842,3.915,15.011,9.653,19.898
		H93.073L66.19,70.922c-1.232-2.236-3.355-3.843-5.841-4.422L11.041,55.017c-2.676-0.624-5.486,0.009-7.637,1.717
		C1.253,58.441,0,61.037,0,63.783v314.842c0,4.971,4.029,9,9,9h25.441L54.08,200.586c0.497-4.731,4.582-8.251,9.342-8.052l23,1
		c3.806,0.166,7.096,2.711,8.213,6.353l22.141,72.197l21.655,16.241c2.266,1.7,3.6,4.367,3.6,7.2v42.35l44.157,5.725
		c3.878,0.503,6.988,3.453,7.695,7.299l6.746,36.725h182.402c0.006-0.001,0.014-0.001,0.02,0c4.971,0,9-4.029,9-9
		C392.051,377.435,391.82,376.298,391.401,375.259z M177.021,99.958c-0.565,4.716-4.562,8.272-9.296,8.272
		c-0.378,0-0.761-0.023-1.14-0.068c-5.139-0.616-8.819-5.298-8.203-10.437c0.565-4.717,4.561-8.273,9.296-8.273
		c0.377,0,0.76,0.023,1.14,0.068c2.49,0.298,4.714,1.548,6.263,3.52C176.63,95.012,177.319,97.469,177.021,99.958z M294.079,113.982
		c-0.565,4.716-4.562,8.272-9.297,8.272c-0.377,0-0.761-0.023-1.14-0.068c-5.139-0.616-8.819-5.298-8.203-10.437
		c0.565-4.716,4.561-8.272,9.296-8.272c0.377,0,0.76,0.023,1.14,0.068c2.49,0.298,4.715,1.548,6.264,3.52
		C293.688,109.036,294.377,111.492,294.079,113.982z"/>
	<path d="M121.023,377.546l-4.478-37.099c-0.295-2.443-1.577-4.659-3.549-6.132c-1.972-1.473-4.461-2.074-6.887-1.664l-23.658,4
		c-4.023,0.68-7.086,3.982-7.461,8.046l-3.059,33.099c-0.233,2.52,0.606,5.022,2.312,6.892c1.706,1.87,4.12,2.936,6.65,2.936h31.194
		c2.575,0,5.026-1.103,6.734-3.029C120.531,382.668,121.332,380.102,121.023,377.546z"/>
</g>
<g>
</g>
<g>
</g>
<g>
</g>
<g>
</g>
<g>
</g>
<g>
</g>
<g>
</g>
<g>
</g>
<g>
</g>
<g>
</g>
<g>
</g>
<g>
</g>
<g>
</g>
<g>
</g>
<g>
</g>
</svg>
