<?xml version="1.0" encoding="iso-8859-1"?>
<!-- Generator: Adobe Illustrator 18.0.0, SVG Export Plug-In . SVG Version: 6.00 Build 0)  -->
<!DOCTYPE svg PUBLIC "-//W3C//DTD SVG 1.1//EN" "http://www.w3.org/Graphics/SVG/1.1/DTD/svg11.dtd">
<svg version="1.1" id="Capa_1" xmlns="http://www.w3.org/2000/svg" xmlns:xlink="http://www.w3.org/1999/xlink" x="0px" y="0px"
	 viewBox="0 0 426.479 426.479" style="enable-background:new 0 0 426.479 426.479;" xml:space="preserve">
<g>
	<path d="M362.74,213.52h-14.337V68.982C348.403,30.945,317.457,0,279.42,0H147.059c-38.037,0-68.982,30.945-68.982,68.982V213.52
		H63.74c-5.523,0-10,4.477-10,10v164.361c0,21.283,17.315,38.598,38.598,38.598h241.804c21.283,0,38.598-17.315,38.598-38.598
		V223.52C372.74,217.997,368.263,213.52,362.74,213.52z M98.077,68.982C98.077,41.974,120.051,20,147.059,20H279.42
		c27.009,0,48.982,21.974,48.982,48.982V213.52h-14.981l-39.025-67.585c-1.787-3.094-5.088-5-8.661-5s-6.874,1.906-8.66,5
		l-39.016,67.584h-6.813v-7.054c0-12.388-5.204-24.336-14.293-32.796c-2.492-2.309-4.455-5.08-5.824-8.217
		c-1.369-3.153-2.063-6.483-2.063-9.897v-64.79c0-5.523-4.477-10-10-10h-36.43c-5.523,0-10,4.477-10,10v64.79
		c0,6.854-2.878,13.46-7.908,18.134c-4.535,4.226-8.084,9.24-10.547,14.895c-2.472,5.663-3.725,11.679-3.725,17.881v7.054H98.077
		V68.982z M290.327,213.52h-49.174l24.584-42.585L290.327,213.52z M169.066,112.494h-16.43v-11.729h16.43V112.494z M152.636,155.556
		v-23.062h16.43v23.062c0,6.171,1.25,12.181,3.725,17.88c2.487,5.697,6.042,10.711,10.552,14.889
		c5.022,4.675,7.903,11.287,7.903,18.141v7.054h-60.79v-7.054c0-3.432,0.691-6.756,2.058-9.887c1.365-3.134,3.333-5.912,5.839-8.248
		C147.43,179.896,152.636,167.95,152.636,155.556z M352.74,387.881c0,10.255-8.343,18.598-18.598,18.598H92.338
		c-10.255,0-18.598-8.343-18.598-18.598V233.52h279V387.881z"/>
	<path d="M95.201,344.768c-5.523,0-10,4.477-10,10s4.477,10,10,10h38.504v16.075c0,5.523,4.477,10,10,10s10-4.477,10-10v-16.075
		h49.535v16.075c0,5.523,4.477,10,10,10s10-4.477,10-10v-16.075h49.535v16.075c0,5.523,4.477,10,10,10s10-4.477,10-10v-16.075
		h38.507c5.523,0,10-4.477,10-10s-4.477-10-10-10h-38.507v-49.535h38.507c5.523,0,10-4.477,10-10s-4.477-10-10-10h-38.507v-16.076
		c0-5.523-4.477-10-10-10s-10,4.477-10,10v16.076H223.24v-16.076c0-5.523-4.477-10-10-10s-10,4.477-10,10v16.076h-49.535v-16.076
		c0-5.523-4.477-10-10-10s-10,4.477-10,10v16.076H95.201c-5.523,0-10,4.477-10,10s4.477,10,10,10h38.504v49.535H95.201z
		 M272.775,295.232v49.535H223.24v-49.535H272.775z M153.705,295.232h49.535v49.535h-49.535V295.232z"/>
</g>
<g>
</g>
<g>
</g>
<g>
</g>
<g>
</g>
<g>
</g>
<g>
</g>
<g>
</g>
<g>
</g>
<g>
</g>
<g>
</g>
<g>
</g>
<g>
</g>
<g>
</g>
<g>
</g>
<g>
</g>
</svg>
