<?xml version="1.0" encoding="iso-8859-1"?>
<!-- Generator: Adobe Illustrator 19.0.0, SVG Export Plug-In . SVG Version: 6.00 Build 0)  -->
<svg version="1.1" id="Layer_1" xmlns="http://www.w3.org/2000/svg" xmlns:xlink="http://www.w3.org/1999/xlink" x="0px" y="0px"
	 viewBox="0 0 512.001 512.001" style="enable-background:new 0 0 512.001 512.001;" xml:space="preserve">
<g>
	<g>
		<path d="M212.197,70.432H32.254C14.469,70.432,0,84.901,0,102.686v306.63c0,17.784,14.469,32.254,32.254,32.254h179.944
			c17.784,0,32.254-14.469,32.254-32.254v-306.63C244.452,84.901,229.983,70.432,212.197,70.432z M212.198,423.725H32.254
			c-7.945,0-14.41-6.464-14.41-14.41v-306.63c0-7.945,6.464-14.41,14.41-14.41h179.944c7.945,0,14.41,6.464,14.41,14.41v306.63
			h0.001C226.608,417.261,220.144,423.725,212.198,423.725z"/>
	</g>
</g>
<g>
	<g>
		<path d="M205.79,100.172H38.662c-4.927,0-8.922,3.995-8.922,8.922v293.813c0,4.927,3.995,8.922,8.922,8.922H205.79
			c4.927,0,8.922-3.995,8.922-8.922V109.094C214.712,104.167,210.717,100.172,205.79,100.172z M196.868,393.985H47.584V118.016
			h149.284V393.985z"/>
	</g>
</g>
<g>
	<g>
		<path d="M479.746,70.432H299.804c-17.784,0-32.254,14.469-32.254,32.254v306.63c0,17.784,14.469,32.254,32.254,32.254h179.944
			c17.784,0,32.254-14.469,32.254-32.254v-306.63C512,84.901,497.531,70.432,479.746,70.432z M494.157,409.316h-0.001
			c0,7.945-6.464,14.41-14.41,14.41H299.804c-7.947,0-14.41-6.464-14.41-14.41v-306.63c0-7.945,6.464-14.41,14.41-14.41h179.944
			c7.946,0,14.41,6.464,14.41,14.41V409.316z"/>
	</g>
</g>
<g>
	<g>
		<path d="M473.339,100.172H306.212c-4.928,0-8.922,3.995-8.922,8.922v293.813c0,4.927,3.994,8.922,8.922,8.922h167.127
			c4.929,0,8.922-3.995,8.922-8.922V109.094C482.261,104.167,478.268,100.172,473.339,100.172z M464.417,393.985H315.134V118.016
			h149.283V393.985z"/>
	</g>
</g>
<g>
	<g>
		<path d="M182.49,336.294l-46.049-79.759c19.647-6.08,33.961-24.415,33.961-46.034c0-26.565-21.611-48.178-48.178-48.178
			c-26.566,0-48.178,21.611-48.178,48.178c0,21.617,14.313,39.954,33.961,46.034l-46.049,79.759c-1.594,2.76-1.594,6.162,0,8.922
			s4.541,4.461,7.729,4.461h105.077c3.188,0,6.132-1.701,7.726-4.461S184.085,339.054,182.49,336.294z M91.893,210.501
			c0-16.726,13.607-30.334,30.334-30.334c16.727,0,30.334,13.607,30.334,30.334c0,16.726-13.607,30.332-30.334,30.332
			C105.5,240.834,91.893,227.226,91.893,210.501z M85.14,331.833l37.086-64.234l37.086,64.234H85.14z"/>
	</g>
</g>
<g>
	<g>
		<path d="M450.041,245.295c-1.594-2.76-4.538-4.461-7.726-4.461h-15.637c7.031-8.375,11.275-19.163,11.275-30.927
			c0-26.565-21.611-48.178-48.176-48.178s-48.178,21.611-48.178,48.178c0,11.764,4.244,22.552,11.275,30.927h-15.636
			c-3.188,0-6.132,1.701-7.726,4.461s-1.594,6.162,0,8.922l52.539,91c1.594,2.76,4.538,4.461,7.726,4.461
			c3.188,0,6.132-1.701,7.726-4.461l52.539-91C451.635,251.457,451.635,248.055,450.041,245.295z M389.776,179.573
			c16.726,0,30.332,13.607,30.332,30.334c0,16.726-13.607,30.332-30.332,30.332c-16.727,0-30.334-13.607-30.334-30.332
			C359.442,193.181,373.05,179.573,389.776,179.573z M389.776,322.911l-37.086-64.234h74.172L389.776,322.911z"/>
	</g>
</g>
<g>
</g>
<g>
</g>
<g>
</g>
<g>
</g>
<g>
</g>
<g>
</g>
<g>
</g>
<g>
</g>
<g>
</g>
<g>
</g>
<g>
</g>
<g>
</g>
<g>
</g>
<g>
</g>
<g>
</g>
</svg>
