<svg id="Capa_1"  viewBox="0 0 512 512" xmlns="http://www.w3.org/2000/svg"><path d="m510.338 380.076c2.477-4.387 2.167-9.634-.81-13.698-2.677-3.653-6.919-5.529-11.333-5.118-5.341-7.789-199.076-290.33-208.87-304.614v-28.508c0-4.142-3.358-7.5-7.5-7.5s-7.5 3.357-7.5 7.5v10.017l-145.639 256.952h-7.569c-4.142 0-7.5 3.357-7.5 7.5s3.358 7.5 7.5 7.5h153.21v16.024h-75.978c-7.328 0-14.274 3.542-18.581 9.475l-10.57 14.57c-2.432 3.353-1.686 8.043 1.667 10.475 3.352 2.432 8.041 1.685 10.474-1.667l10.569-14.569c1.493-2.057 3.9-3.285 6.44-3.285h97.478c18.762 0 37.187 6.432 51.882 18.112l25.61 20.353c-9.036.914-18.312 1.785-27.826 2.613-21.831-18.766-37.221-27.169-49.666-27.169h-88.098c-3.969 0-7.733 1.918-10.071 5.137l-22.909 31.585c-5.798.181-11.648.353-17.554.514l3.397-4.683c2.432-3.352 1.686-8.042-1.667-10.474-3.354-2.432-8.043-1.685-10.474 1.668l-10.13 13.965c-39.572.919-81.47 1.404-125.666 1.451-4.374.005-8.374 2.218-10.701 5.92-2.329 3.705-2.589 8.274-.694 12.221l34.517 71.927c2.067 4.308 6.491 7.093 11.27 7.093h257.814c4.142 0 7.5-3.357 7.5-7.5s-3.358-7.5-7.5-7.5h-256.243l-16.969-35.359c189.272-1.198 337.793-10.417 442.003-27.428-16.272 27.641-31.324 52.37-36.967 61.598-.455.744-1.25 1.188-2.128 1.188h-94.701c-4.142 0-7.5 3.357-7.5 7.5s3.358 7.5 7.5 7.5h94.701c6.052 0 11.771-3.205 14.925-8.364 6.602-10.796 55.872-94.092 60.857-102.922zm-42.162-36.066h-115.843c-12.744-8.932-27.49-14.728-42.854-16.898 8.819-18.44 14.476-41.76 16.826-69.565 3.169-37.513.139-82.328-9.008-133.583zm-322.249-48.903 128.394-226.524v226.524zm143.399-211.937 6.414 9.354c30.763 140.583 12.675 205.868-2.602 233.606h-3.813v-242.96zm82.198 275.84h106.941l3.694 5.387c-25.731 4.91-54.955 9.218-87.595 12.922zm-47.661 24.977c-20.454 1.585-41.921 2.989-64.406 4.207v-18.154h36.369c6.368 0 15.773 4.691 28.037 13.947zm-114.831-13.947h35.425v18.931c-16.392.812-33.299 1.531-50.719 2.155zm-184.563 56.004-8.085-16.848c212.649-.345 372.348-10.879 475.016-31.323l.122.178c.481.702 1.068 1.286 1.715 1.767-3.178 5.574-6.435 11.229-9.711 16.872-105.112 18.435-259.508 28.308-459.057 29.354z"/></svg>